0.16m3min_grf.mot
version=1
nRows=25
nColumns 19
inDegrees=yes
endheader
time	1_ground_force_vx	1_ground_force_vy	1_ground_force_vz	1_ground_force_px	1_ground_force_py	1_ground_force_pz	1_ground_torque_x	1_ground_torque_y	1_ground_torque_z	2_ground_force_vx	2_ground_force_vy	2_ground_force_vz	2_ground_force_px	2_ground_force_py	2_ground_force_pz	2_ground_torque_x	2_ground_torque_y	2_ground_torque_z
            3.751500	           -0.046559	            0.181436	           -0.274249	           -0.233013	            0.005581	           -0.255695	            0.105478	           -0.036984	           -0.002382	           -0.139323	           -0.367967	           -0.235895	           -0.232311	            0.006130	           -0.833667	           -0.037433	           -0.047130	           -0.075553
            3.752000	           -0.183860	            0.181017	           -0.182196	           -0.233013	            0.005581	           -0.255695	            0.101363	           -0.018236	           -0.083348	            0.092329	            0.368970	           -0.092582	           -0.232311	            0.006130	           -0.833667	           -0.131625	            0.028085	           -0.056394
            3.752500	           -0.000683	            0.001180	           -0.275135	           -0.233013	            0.005581	           -0.255695	            0.105589	            0.018497	           -0.000183	           -0.092473	           -0.367798	           -0.235915	           -0.232311	            0.006130	           -0.833667	           -0.113002	            0.075349	           -0.037383
            3.753000	            0.183046	            0.541226	           -0.089848	           -0.233013	            0.005581	           -0.255695	            0.059722	           -0.055045	           -0.067777	            0.047994	           -0.366621	           -0.423687	           -0.232311	            0.006130	           -0.833667	           -0.112891	            0.046924	           -0.018634
            3.753500	           -0.091752	            0.360514	            0.001773	           -0.233013	            0.005581	           -0.255695	            0.055751	           -0.017954	           -0.135724	           -0.094426	            0.184312	           -0.140087	           -0.232311	            0.006130	           -0.833667	           -0.075157	           -0.009321	           -0.113103
            3.754000	           -0.229880	           -0.719731	           -0.323514	           -0.233013	            0.005581	           -0.255695	            0.032905	           -0.037084	           -0.009989	           -0.235682	            0.368288	           -0.233227	           -0.232311	            0.006130	           -0.833667	           -0.169255	            0.046787	           -0.037460
            3.754500	           -0.000180	            0.360728	           -0.044310	           -0.233013	            0.005581	           -0.255695	            0.020362	           -0.036729	           -0.056615	           -0.000623	            0.183814	            0.094513	           -0.232311	            0.006130	           -0.833667	           -0.169102	            0.008842	            0.000106
            3.755000	           -0.092144	            1.262235	           -0.086074	           -0.233013	            0.005581	           -0.255695	            0.078138	           -0.036923	           -0.023105	           -0.140652	            0.000329	           -0.234581	           -0.232311	            0.006130	           -0.833667	           -0.037527	           -0.018839	           -0.056602
            3.755500	            0.090805	            1.082791	           -0.270725	           -0.233013	            0.005581	           -0.255695	            0.048730	           -0.000200	            0.060143	           -0.189599	            0.553442	           -0.467230	           -0.232311	            0.006130	           -0.833667	           -0.225474	           -0.000411	           -0.113005
            3.756000	            0.182965	            0.361157	           -0.136477	           -0.233013	            0.005581	           -0.255695	            0.024282	            0.018813	           -0.048568	           -0.093076	           -0.184152	           -0.094473	           -0.232311	            0.006130	           -0.833667	           -0.075167	            0.009114	            0.018916
            3.756500	           -0.230063	            0.902464	           -0.270702	           -0.233013	            0.005581	           -0.255695	            0.086223	           -0.037072	           -0.010179	            0.046041	            0.185489	           -0.327860	           -0.232311	            0.006130	           -0.833667	           -0.131667	            0.037605	           -0.075210
            3.757000	           -0.183650	            0.901490	           -0.041536	           -0.233013	            0.005581	           -0.255695	           -0.036077	           -0.092688	            0.029437	           -0.188085	            0.183639	           -0.046191	           -0.232311	            0.006130	           -0.833667	           -0.150428	            0.037335	           -0.018651
            3.757500	           -0.275010	            0.360282	            0.048084	           -0.233013	            0.005581	           -0.255695	            0.053967	           -0.036846	           -0.068427	           -0.093056	           -0.184319	           -0.047545	           -0.232311	            0.006130	           -0.833667	           -0.000060	            0.018838	            0.018918
            3.758000	           -0.092647	            0.902687	           -0.316899	           -0.233013	            0.005581	           -0.255695	            0.125737	           -0.037003	           -0.004412	           -0.046973	            0.000835	           -0.281549	           -0.232311	            0.006130	           -0.833667	           -0.150290	           -0.009659	           -0.094221
            3.758500	           -0.000197	            1.081594	            0.004638	           -0.233013	            0.005581	           -0.255695	           -0.000970	           -0.027247	           -0.112942	           -0.137371	           -0.920078	           -0.331722	           -0.232311	            0.006130	           -0.833667	           -0.150359	            0.018430	           -0.018719
            3.759000	           -0.138296	            1.082550	           -0.224300	           -0.233013	            0.005581	           -0.255695	            0.121803	           -0.055669	            0.031152	           -0.281887	            0.184138	           -0.280792	           -0.232311	            0.006130	           -0.833667	           -0.150224	           -0.010197	            0.056581
            3.759500	           -0.137286	            0.540181	            0.140228	           -0.233013	            0.005581	           -0.255695	            0.068954	           -0.000206	            0.031541	           -0.374320	           -0.183995	           -0.422851	           -0.232311	            0.006130	           -0.833667	           -0.150410	            0.028017	           -0.056386
            3.760000	            0.137805	            0.359968	            0.138772	           -0.233013	            0.005581	           -0.255695	            0.087642	           -0.027403	           -0.050878	           -0.043671	           -0.919739	           -0.331762	           -0.232311	            0.006130	           -0.833667	           -0.094293	            0.094390	           -0.056173
            3.760500	            0.183078	            0.360960	           -0.090621	           -0.233013	            0.005581	           -0.255695	            0.153725	            0.055813	           -0.048731	           -0.048926	            0.552945	           -0.185721	           -0.232311	            0.006130	           -0.833667	           -0.169169	            0.018564	           -0.075261
            3.761000	            0.366385	            0.721527	           -0.089530	           -0.233013	            0.005581	           -0.255695	           -0.015518	           -0.008678	           -0.078377	           -0.046850	           -0.000169	            0.000020	           -0.232311	            0.006130	           -0.833667	           -0.131532	            0.008978	            0.000090
            3.761500	            0.046949	            0.178308	            0.459218	           -0.233013	            0.005581	           -0.255695	            0.036568	           -0.046011	           -0.035936	           -0.232420	           -0.551952	           -0.377296	           -0.232311	            0.006130	           -0.833667	           -0.206520	           -0.029239	            0.037687
            3.762000	           -0.229622	            0.361077	           -0.135453	           -0.233013	            0.005581	           -0.255695	            0.024334	            0.009218	           -0.028605	            0.046829	            0.000337	           -0.046948	           -0.232311	            0.006130	           -0.833667	           -0.131505	           -0.009591	           -0.094229
            3.762500	            0.000147	           -0.180462	            0.045083	           -0.233013	            0.005581	           -0.255695	           -0.002073	            0.000404	           -0.093977	           -0.093761	            0.000164	           -0.140744	           -0.232311	            0.006130	           -0.833667	           -0.131599	            0.018700	           -0.075277
            3.763000	           -0.137676	            0.180436	           -0.044742	           -0.233013	            0.005581	           -0.255695	            0.114321	           -0.018288	           -0.062627	           -0.188811	            0.368289	           -0.186319	           -0.232311	            0.006130	           -0.833667	           -0.131660	            0.046721	            0.019075
            3.763500	            0.044899	            0.181847	           -0.366188	           -0.233013	            0.005581	           -0.255695	            0.165518	            0.018849	           -0.073574	           -0.093179	           -0.183315	           -0.329114	           -0.232311	            0.006130	           -0.833667	           -0.094097	            0.046924	            0.000209
